<?xml version="1.0" encoding="UTF-8" standalone="no"?>
<!DOCTYPE svg PUBLIC "-//W3C//DTD SVG 1.1//EN"
 "http://www.w3.org/Graphics/SVG/1.1/DTD/svg11.dtd">
<!-- Generated by graphviz version 2.38.0 (20140413.2041)
 -->
<!-- Title: base.cpp Pages: 1 -->
<svg width="408pt" height="84pt"
 viewBox="0.00 0.00 407.50 84.00" xmlns="http://www.w3.org/2000/svg" xmlns:xlink="http://www.w3.org/1999/xlink">
<g id="graph0" class="graph" transform="scale(1 1) rotate(0) translate(4 80)">
<title>base.cpp</title>
<polygon fill="white" stroke="none" points="-4,4 -4,-80 403.5,-80 403.5,4 -4,4"/>
<!-- Node1 -->
<g id="node1" class="node"><title>Node1</title>
<polygon fill="#bfbfbf" stroke="black" points="176,-56.5 176,-75.5 232,-75.5 232,-56.5 176,-56.5"/>
<text text-anchor="middle" x="204" y="-63.5" font-family="Helvetica,sans-Serif" font-size="10.00">base.cpp</text>
</g>
<!-- Node2 -->
<g id="node2" class="node"><title>Node2</title>
<g id="a_node2"><a xlink:href="base_8h.html" target="_top" xlink:title="base.h">
<polygon fill="white" stroke="black" points="0,-0.5 0,-19.5 46,-19.5 46,-0.5 0,-0.5"/>
<text text-anchor="middle" x="23" y="-7.5" font-family="Helvetica,sans-Serif" font-size="10.00">base.h</text>
</a>
</g>
</g>
<!-- Node1&#45;&gt;Node2 -->
<g id="edge1" class="edge"><title>Node1&#45;&gt;Node2</title>
<path fill="none" stroke="midnightblue" d="M175.719,-56.5625C143.371,-46.9118 90.4684,-31.1287 56.1949,-20.9035"/>
<polygon fill="midnightblue" stroke="midnightblue" points="56.783,-17.4265 46.1998,-17.9215 54.7817,-24.1344 56.783,-17.4265"/>
</g>
<!-- Node3 -->
<g id="node3" class="node"><title>Node3</title>
<polygon fill="white" stroke="#bfbfbf" points="64.5,-0.5 64.5,-19.5 123.5,-19.5 123.5,-0.5 64.5,-0.5"/>
<text text-anchor="middle" x="94" y="-7.5" font-family="Helvetica,sans-Serif" font-size="10.00">wiringPi.h</text>
</g>
<!-- Node1&#45;&gt;Node3 -->
<g id="edge2" class="edge"><title>Node1&#45;&gt;Node3</title>
<path fill="none" stroke="midnightblue" d="M186.327,-56.324C168.606,-47.6247 141.097,-34.1202 120.712,-24.113"/>
<polygon fill="midnightblue" stroke="midnightblue" points="122.149,-20.9195 111.63,-19.6545 119.064,-27.2031 122.149,-20.9195"/>
</g>
<!-- Node4 -->
<g id="node4" class="node"><title>Node4</title>
<polygon fill="white" stroke="#bfbfbf" points="142,-0.5 142,-19.5 196,-19.5 196,-0.5 142,-0.5"/>
<text text-anchor="middle" x="169" y="-7.5" font-family="Helvetica,sans-Serif" font-size="10.00">iostream</text>
</g>
<!-- Node1&#45;&gt;Node4 -->
<g id="edge3" class="edge"><title>Node1&#45;&gt;Node4</title>
<path fill="none" stroke="midnightblue" d="M198.22,-56.083C193.328,-48.5341 186.173,-37.4948 180.167,-28.2298"/>
<polygon fill="midnightblue" stroke="midnightblue" points="183.048,-26.239 174.672,-19.7511 177.174,-30.0463 183.048,-26.239"/>
</g>
<!-- Node5 -->
<g id="node5" class="node"><title>Node5</title>
<polygon fill="white" stroke="#bfbfbf" points="214,-0.5 214,-19.5 264,-19.5 264,-0.5 214,-0.5"/>
<text text-anchor="middle" x="239" y="-7.5" font-family="Helvetica,sans-Serif" font-size="10.00">signal.h</text>
</g>
<!-- Node1&#45;&gt;Node5 -->
<g id="edge4" class="edge"><title>Node1&#45;&gt;Node5</title>
<path fill="none" stroke="midnightblue" d="M209.78,-56.083C214.672,-48.5341 221.827,-37.4948 227.833,-28.2298"/>
<polygon fill="midnightblue" stroke="midnightblue" points="230.826,-30.0463 233.328,-19.7511 224.952,-26.239 230.826,-30.0463"/>
</g>
<!-- Node6 -->
<g id="node6" class="node"><title>Node6</title>
<polygon fill="white" stroke="#bfbfbf" points="282,-0.5 282,-19.5 330,-19.5 330,-0.5 282,-0.5"/>
<text text-anchor="middle" x="306" y="-7.5" font-family="Helvetica,sans-Serif" font-size="10.00">stdlib.h</text>
</g>
<!-- Node1&#45;&gt;Node6 -->
<g id="edge5" class="edge"><title>Node1&#45;&gt;Node6</title>
<path fill="none" stroke="midnightblue" d="M220.388,-56.324C236.671,-47.7034 261.867,-34.3643 280.716,-24.3855"/>
<polygon fill="midnightblue" stroke="midnightblue" points="282.452,-27.4267 289.653,-19.6545 279.177,-21.2402 282.452,-27.4267"/>
</g>
<!-- Node7 -->
<g id="node7" class="node"><title>Node7</title>
<polygon fill="white" stroke="#bfbfbf" points="348.5,-0.5 348.5,-19.5 399.5,-19.5 399.5,-0.5 348.5,-0.5"/>
<text text-anchor="middle" x="374" y="-7.5" font-family="Helvetica,sans-Serif" font-size="10.00">unistd.h</text>
</g>
<!-- Node1&#45;&gt;Node7 -->
<g id="edge6" class="edge"><title>Node1&#45;&gt;Node7</title>
<path fill="none" stroke="midnightblue" d="M230.937,-56.4435C259.998,-47.2123 306.406,-32.4712 338.445,-22.2941"/>
<polygon fill="midnightblue" stroke="midnightblue" points="339.831,-25.5262 348.302,-19.1629 337.711,-18.8547 339.831,-25.5262"/>
</g>
</g>
</svg>
