<?xml version="1.0" encoding="UTF-8" standalone="no"?>
<!DOCTYPE svg PUBLIC "-//W3C//DTD SVG 1.1//EN"
 "http://www.w3.org/Graphics/SVG/1.1/DTD/svg11.dtd">
<!-- Generated by graphviz version 2.36.0 (20140111.2315)
 -->
<!-- Title: OrderedList&lt; T &gt; Pages: 1 -->
<svg width="206pt" height="154pt"
 viewBox="0.00 0.00 206.00 154.00" xmlns="http://www.w3.org/2000/svg" xmlns:xlink="http://www.w3.org/1999/xlink">
<g id="graph0" class="graph" transform="scale(1 1) rotate(0) translate(4 150)">
<title>OrderedList&lt; T &gt;</title>
<polygon fill="white" stroke="none" points="-4,4 -4,-150 202,-150 202,4 -4,4"/>
<!-- Node1 -->
<g id="node1" class="node"><title>Node1</title>
<polygon fill="#bfbfbf" stroke="black" points="70.5,-0.5 70.5,-19.5 161.5,-19.5 161.5,-0.5 70.5,-0.5"/>
<text text-anchor="middle" x="116" y="-7.5" font-family="Helvetica,sans-Serif" font-size="10.00">OrderedList&lt; T &gt;</text>
</g>
<!-- Node2 -->
<g id="node2" class="node"><title>Node2</title>
<g id="a_node2"><a xlink:href="classList.html" target="_top" xlink:title="List\&lt; T \&gt;">
<polygon fill="white" stroke="black" points="88,-58.5 88,-77.5 144,-77.5 144,-58.5 88,-58.5"/>
<text text-anchor="middle" x="116" y="-65.5" font-family="Helvetica,sans-Serif" font-size="10.00">List&lt; T &gt;</text>
</a>
</g>
</g>
<!-- Node2&#45;&gt;Node1 -->
<g id="edge1" class="edge"><title>Node2&#45;&gt;Node1</title>
<path fill="none" stroke="midnightblue" d="M116,-47.953C116,-38.2875 116,-27.0312 116,-19.5052"/>
<polygon fill="midnightblue" stroke="midnightblue" points="112.5,-48.25 116,-58.25 119.5,-48.25 112.5,-48.25"/>
</g>
<!-- Node3 -->
<g id="node3" class="node"><title>Node3</title>
<polygon fill="white" stroke="#bfbfbf" points="0,-126.5 0,-145.5 62,-145.5 62,-126.5 0,-126.5"/>
<text text-anchor="middle" x="31" y="-133.5" font-family="Helvetica,sans-Serif" font-size="10.00">const bool</text>
</g>
<!-- Node3&#45;&gt;Node2 -->
<g id="edge2" class="edge"><title>Node3&#45;&gt;Node2</title>
<path fill="none" stroke="#9a32cd" stroke-dasharray="5,2" d="M40.571,-117.111C45.1154,-109.861 51.0743,-101.839 58,-96 67.4259,-88.0532 79.582,-81.9216 90.3286,-77.5252"/>
<polygon fill="#9a32cd" stroke="#9a32cd" points="37.2669,-115.834 35.2931,-126.243 43.3275,-119.337 37.2669,-115.834"/>
<text text-anchor="middle" x="85" y="-99.5" font-family="Helvetica,sans-Serif" font-size="10.00"> controlData</text>
</g>
<!-- Node4 -->
<g id="node4" class="node"><title>Node4</title>
<polygon fill="white" stroke="#bfbfbf" points="80.5,-126.5 80.5,-145.5 151.5,-145.5 151.5,-126.5 80.5,-126.5"/>
<text text-anchor="middle" x="116" y="-133.5" font-family="Helvetica,sans-Serif" font-size="10.00">Node&lt; T &gt; *</text>
</g>
<!-- Node4&#45;&gt;Node2 -->
<g id="edge3" class="edge"><title>Node4&#45;&gt;Node2</title>
<path fill="none" stroke="#9a32cd" stroke-dasharray="5,2" d="M116,-116.041C116,-103.472 116,-87.5631 116,-77.8411"/>
<polygon fill="#9a32cd" stroke="#9a32cd" points="112.5,-116.372 116,-126.372 119.5,-116.372 112.5,-116.372"/>
<text text-anchor="middle" x="126" y="-99.5" font-family="Helvetica,sans-Serif" font-size="10.00"> first</text>
</g>
<!-- Node5 -->
<g id="node5" class="node"><title>Node5</title>
<polygon fill="white" stroke="#bfbfbf" points="169.5,-126.5 169.5,-145.5 198.5,-145.5 198.5,-126.5 169.5,-126.5"/>
<text text-anchor="middle" x="184" y="-133.5" font-family="Helvetica,sans-Serif" font-size="10.00">int</text>
</g>
<!-- Node5&#45;&gt;Node2 -->
<g id="edge4" class="edge"><title>Node5&#45;&gt;Node2</title>
<path fill="none" stroke="#9a32cd" stroke-dasharray="5,2" d="M167.564,-119.047C154.236,-106.111 135.943,-88.3567 125.109,-77.8411"/>
<polygon fill="#9a32cd" stroke="#9a32cd" points="165.497,-121.918 175.11,-126.372 170.372,-116.895 165.497,-121.918"/>
<text text-anchor="middle" x="168" y="-99.5" font-family="Helvetica,sans-Serif" font-size="10.00"> size</text>
</g>
</g>
</svg>
