<?xml version="1.0" encoding="UTF-8" standalone="no"?>
<!DOCTYPE svg PUBLIC "-//W3C//DTD SVG 1.1//EN"
 "http://www.w3.org/Graphics/SVG/1.1/DTD/svg11.dtd">
<!-- Generated by graphviz version 2.36.0 (20140111.2315)
 -->
<!-- Title: UniqueList&lt; T &gt; Pages: 1 -->
<svg width="206pt" height="212pt"
 viewBox="0.00 0.00 206.00 212.00" xmlns="http://www.w3.org/2000/svg" xmlns:xlink="http://www.w3.org/1999/xlink">
<g id="graph0" class="graph" transform="scale(1 1) rotate(0) translate(4 208)">
<title>UniqueList&lt; T &gt;</title>
<polygon fill="white" stroke="none" points="-4,4 -4,-208 202,-208 202,4 -4,4"/>
<!-- Node1 -->
<g id="node1" class="node"><title>Node1</title>
<polygon fill="#bfbfbf" stroke="black" points="72.5,-0.5 72.5,-19.5 159.5,-19.5 159.5,-0.5 72.5,-0.5"/>
<text text-anchor="middle" x="116" y="-7.5" font-family="Helvetica,sans-Serif" font-size="10.00">UniqueList&lt; T &gt;</text>
</g>
<!-- Node2 -->
<g id="node2" class="node"><title>Node2</title>
<g id="a_node2"><a xlink:href="classOrderedList.html" target="_top" xlink:title="OrderedList\&lt; T \&gt;">
<polygon fill="white" stroke="black" points="70.5,-58.5 70.5,-77.5 161.5,-77.5 161.5,-58.5 70.5,-58.5"/>
<text text-anchor="middle" x="116" y="-65.5" font-family="Helvetica,sans-Serif" font-size="10.00">OrderedList&lt; T &gt;</text>
</a>
</g>
</g>
<!-- Node2&#45;&gt;Node1 -->
<g id="edge1" class="edge"><title>Node2&#45;&gt;Node1</title>
<path fill="none" stroke="midnightblue" d="M116,-47.953C116,-38.2875 116,-27.0312 116,-19.5052"/>
<polygon fill="midnightblue" stroke="midnightblue" points="112.5,-48.25 116,-58.25 119.5,-48.25 112.5,-48.25"/>
</g>
<!-- Node3 -->
<g id="node3" class="node"><title>Node3</title>
<g id="a_node3"><a xlink:href="classList.html" target="_top" xlink:title="List\&lt; T \&gt;">
<polygon fill="white" stroke="black" points="88,-116.5 88,-135.5 144,-135.5 144,-116.5 88,-116.5"/>
<text text-anchor="middle" x="116" y="-123.5" font-family="Helvetica,sans-Serif" font-size="10.00">List&lt; T &gt;</text>
</a>
</g>
</g>
<!-- Node3&#45;&gt;Node2 -->
<g id="edge2" class="edge"><title>Node3&#45;&gt;Node2</title>
<path fill="none" stroke="midnightblue" d="M116,-105.953C116,-96.2875 116,-85.0312 116,-77.5052"/>
<polygon fill="midnightblue" stroke="midnightblue" points="112.5,-106.25 116,-116.25 119.5,-106.25 112.5,-106.25"/>
</g>
<!-- Node4 -->
<g id="node4" class="node"><title>Node4</title>
<polygon fill="white" stroke="#bfbfbf" points="0,-184.5 0,-203.5 62,-203.5 62,-184.5 0,-184.5"/>
<text text-anchor="middle" x="31" y="-191.5" font-family="Helvetica,sans-Serif" font-size="10.00">const bool</text>
</g>
<!-- Node4&#45;&gt;Node3 -->
<g id="edge3" class="edge"><title>Node4&#45;&gt;Node3</title>
<path fill="none" stroke="#9a32cd" stroke-dasharray="5,2" d="M40.571,-175.111C45.1154,-167.861 51.0743,-159.839 58,-154 67.4259,-146.053 79.582,-139.922 90.3286,-135.525"/>
<polygon fill="#9a32cd" stroke="#9a32cd" points="37.2669,-173.834 35.2931,-184.243 43.3275,-177.337 37.2669,-173.834"/>
<text text-anchor="middle" x="85" y="-157.5" font-family="Helvetica,sans-Serif" font-size="10.00"> controlData</text>
</g>
<!-- Node5 -->
<g id="node5" class="node"><title>Node5</title>
<polygon fill="white" stroke="#bfbfbf" points="80.5,-184.5 80.5,-203.5 151.5,-203.5 151.5,-184.5 80.5,-184.5"/>
<text text-anchor="middle" x="116" y="-191.5" font-family="Helvetica,sans-Serif" font-size="10.00">Node&lt; T &gt; *</text>
</g>
<!-- Node5&#45;&gt;Node3 -->
<g id="edge4" class="edge"><title>Node5&#45;&gt;Node3</title>
<path fill="none" stroke="#9a32cd" stroke-dasharray="5,2" d="M116,-174.041C116,-161.472 116,-145.563 116,-135.841"/>
<polygon fill="#9a32cd" stroke="#9a32cd" points="112.5,-174.372 116,-184.372 119.5,-174.372 112.5,-174.372"/>
<text text-anchor="middle" x="126" y="-157.5" font-family="Helvetica,sans-Serif" font-size="10.00"> first</text>
</g>
<!-- Node6 -->
<g id="node6" class="node"><title>Node6</title>
<polygon fill="white" stroke="#bfbfbf" points="169.5,-184.5 169.5,-203.5 198.5,-203.5 198.5,-184.5 169.5,-184.5"/>
<text text-anchor="middle" x="184" y="-191.5" font-family="Helvetica,sans-Serif" font-size="10.00">int</text>
</g>
<!-- Node6&#45;&gt;Node3 -->
<g id="edge5" class="edge"><title>Node6&#45;&gt;Node3</title>
<path fill="none" stroke="#9a32cd" stroke-dasharray="5,2" d="M167.564,-177.047C154.236,-164.111 135.943,-146.357 125.109,-135.841"/>
<polygon fill="#9a32cd" stroke="#9a32cd" points="165.497,-179.918 175.11,-184.372 170.372,-174.895 165.497,-179.918"/>
<text text-anchor="middle" x="168" y="-157.5" font-family="Helvetica,sans-Serif" font-size="10.00"> size</text>
</g>
</g>
</svg>
