<?xml version="1.0" encoding="UTF-8" standalone="no"?>
<!DOCTYPE svg PUBLIC "-//W3C//DTD SVG 1.1//EN"
 "http://www.w3.org/Graphics/SVG/1.1/DTD/svg11.dtd">
<!-- Generated by graphviz version 2.36.0 (20140111.2315)
 -->
<!-- Title: UniqueList&lt; T &gt; Pages: 1 -->
<svg width="126pt" height="212pt"
 viewBox="0.00 0.00 126.00 212.00" xmlns="http://www.w3.org/2000/svg" xmlns:xlink="http://www.w3.org/1999/xlink">
<g id="graph0" class="graph" transform="scale(1 1) rotate(0) translate(4 208)">
<title>UniqueList&lt; T &gt;</title>
<polygon fill="white" stroke="none" points="-4,4 -4,-208 122,-208 122,4 -4,4"/>
<!-- Node1 -->
<g id="node1" class="node"><title>Node1</title>
<polygon fill="#bfbfbf" stroke="black" points="15.5,-68.5 15.5,-87.5 102.5,-87.5 102.5,-68.5 15.5,-68.5"/>
<text text-anchor="middle" x="59" y="-75.5" font-family="Helvetica,sans-Serif" font-size="10.00">UniqueList&lt; T &gt;</text>
</g>
<!-- Node4 -->
<g id="node4" class="node"><title>Node4</title>
<g id="a_node4"><a xlink:href="classUniqueList.html" target="_top" xlink:title="UniqueList\&lt; Location \&gt;">
<polygon fill="white" stroke="black" points="0,-0.5 0,-19.5 118,-19.5 118,-0.5 0,-0.5"/>
<text text-anchor="middle" x="59" y="-7.5" font-family="Helvetica,sans-Serif" font-size="10.00">UniqueList&lt; Location &gt;</text>
</a>
</g>
</g>
<!-- Node1&#45;&gt;Node4 -->
<g id="edge3" class="edge"><title>Node1&#45;&gt;Node4</title>
<path fill="none" stroke="orange" stroke-dasharray="5,2" d="M59,-58.0413C59,-45.4724 59,-29.5631 59,-19.8411"/>
<polygon fill="orange" stroke="orange" points="55.5001,-58.3716 59,-68.3717 62.5001,-58.3717 55.5001,-58.3716"/>
<text text-anchor="middle" x="88" y="-41.5" font-family="Helvetica,sans-Serif" font-size="10.00"> &lt; Location &gt;</text>
</g>
<!-- Node2 -->
<g id="node2" class="node"><title>Node2</title>
<g id="a_node2"><a xlink:href="classOrderedList.html" target="_top" xlink:title="OrderedList\&lt; T \&gt;">
<polygon fill="white" stroke="black" points="13.5,-126.5 13.5,-145.5 104.5,-145.5 104.5,-126.5 13.5,-126.5"/>
<text text-anchor="middle" x="59" y="-133.5" font-family="Helvetica,sans-Serif" font-size="10.00">OrderedList&lt; T &gt;</text>
</a>
</g>
</g>
<!-- Node2&#45;&gt;Node1 -->
<g id="edge1" class="edge"><title>Node2&#45;&gt;Node1</title>
<path fill="none" stroke="midnightblue" d="M59,-115.953C59,-106.287 59,-95.0312 59,-87.5052"/>
<polygon fill="midnightblue" stroke="midnightblue" points="55.5001,-116.25 59,-126.25 62.5001,-116.25 55.5001,-116.25"/>
</g>
<!-- Node3 -->
<g id="node3" class="node"><title>Node3</title>
<g id="a_node3"><a xlink:href="classList.html" target="_top" xlink:title="List\&lt; T \&gt;">
<polygon fill="white" stroke="black" points="31,-184.5 31,-203.5 87,-203.5 87,-184.5 31,-184.5"/>
<text text-anchor="middle" x="59" y="-191.5" font-family="Helvetica,sans-Serif" font-size="10.00">List&lt; T &gt;</text>
</a>
</g>
</g>
<!-- Node3&#45;&gt;Node2 -->
<g id="edge2" class="edge"><title>Node3&#45;&gt;Node2</title>
<path fill="none" stroke="midnightblue" d="M59,-173.953C59,-164.287 59,-153.031 59,-145.505"/>
<polygon fill="midnightblue" stroke="midnightblue" points="55.5001,-174.25 59,-184.25 62.5001,-174.25 55.5001,-174.25"/>
</g>
</g>
</svg>
