<?xml version="1.0" encoding="UTF-8" standalone="no"?>
<!DOCTYPE svg PUBLIC "-//W3C//DTD SVG 1.1//EN"
 "http://www.w3.org/Graphics/SVG/1.1/DTD/svg11.dtd">
<!-- Generated by graphviz version 2.36.0 (20140111.2315)
 -->
<!-- Title: OrderedList&lt; T &gt; Pages: 1 -->
<svg width="235pt" height="222pt"
 viewBox="0.00 0.00 235.00 222.00" xmlns="http://www.w3.org/2000/svg" xmlns:xlink="http://www.w3.org/1999/xlink">
<g id="graph0" class="graph" transform="scale(1 1) rotate(0) translate(4 218)">
<title>OrderedList&lt; T &gt;</title>
<polygon fill="white" stroke="none" points="-4,4 -4,-218 231,-218 231,4 -4,4"/>
<!-- Node1 -->
<g id="node1" class="node"><title>Node1</title>
<polygon fill="#bfbfbf" stroke="black" points="35.5,-136.5 35.5,-155.5 126.5,-155.5 126.5,-136.5 35.5,-136.5"/>
<text text-anchor="middle" x="81" y="-143.5" font-family="Helvetica,sans-Serif" font-size="10.00">OrderedList&lt; T &gt;</text>
</g>
<!-- Node3 -->
<g id="node3" class="node"><title>Node3</title>
<g id="a_node3"><a xlink:href="classUniqueList.html" target="_top" xlink:title="UniqueList\&lt; T \&gt;">
<polygon fill="white" stroke="black" points="-0.5,-68.5 -0.5,-87.5 86.5,-87.5 86.5,-68.5 -0.5,-68.5"/>
<text text-anchor="middle" x="43" y="-75.5" font-family="Helvetica,sans-Serif" font-size="10.00">UniqueList&lt; T &gt;</text>
</a>
</g>
</g>
<!-- Node1&#45;&gt;Node3 -->
<g id="edge2" class="edge"><title>Node1&#45;&gt;Node3</title>
<path fill="none" stroke="midnightblue" d="M70.9605,-127.563C63.6015,-114.781 53.9163,-97.9599 48.0903,-87.8411"/>
<polygon fill="midnightblue" stroke="midnightblue" points="68.0093,-129.452 76.0322,-136.372 74.0757,-125.959 68.0093,-129.452"/>
</g>
<!-- Node5 -->
<g id="node5" class="node"><title>Node5</title>
<g id="a_node5"><a xlink:href="classOrderedList.html" target="_top" xlink:title="OrderedList\&lt; Location \&gt;">
<polygon fill="white" stroke="black" points="105,-68.5 105,-87.5 227,-87.5 227,-68.5 105,-68.5"/>
<text text-anchor="middle" x="166" y="-75.5" font-family="Helvetica,sans-Serif" font-size="10.00">OrderedList&lt; Location &gt;</text>
</a>
</g>
</g>
<!-- Node1&#45;&gt;Node5 -->
<g id="edge4" class="edge"><title>Node1&#45;&gt;Node5</title>
<path fill="none" stroke="orange" stroke-dasharray="5,2" d="M100.194,-130.096C117.059,-117.001 141.012,-98.4028 154.885,-87.6305"/>
<polygon fill="orange" stroke="orange" points="97.8643,-127.474 92.1123,-136.372 102.157,-133.003 97.8643,-127.474"/>
<text text-anchor="middle" x="161" y="-109.5" font-family="Helvetica,sans-Serif" font-size="10.00"> &lt; Location &gt;</text>
</g>
<!-- Node2 -->
<g id="node2" class="node"><title>Node2</title>
<g id="a_node2"><a xlink:href="classList.html" target="_top" xlink:title="List\&lt; T \&gt;">
<polygon fill="white" stroke="black" points="53,-194.5 53,-213.5 109,-213.5 109,-194.5 53,-194.5"/>
<text text-anchor="middle" x="81" y="-201.5" font-family="Helvetica,sans-Serif" font-size="10.00">List&lt; T &gt;</text>
</a>
</g>
</g>
<!-- Node2&#45;&gt;Node1 -->
<g id="edge1" class="edge"><title>Node2&#45;&gt;Node1</title>
<path fill="none" stroke="midnightblue" d="M81,-183.953C81,-174.287 81,-163.031 81,-155.505"/>
<polygon fill="midnightblue" stroke="midnightblue" points="77.5001,-184.25 81,-194.25 84.5001,-184.25 77.5001,-184.25"/>
</g>
<!-- Node4 -->
<g id="node4" class="node"><title>Node4</title>
<g id="a_node4"><a xlink:href="classUniqueList.html" target="_top" xlink:title="UniqueList\&lt; Location \&gt;">
<polygon fill="white" stroke="black" points="51,-0.5 51,-19.5 169,-19.5 169,-0.5 51,-0.5"/>
<text text-anchor="middle" x="110" y="-7.5" font-family="Helvetica,sans-Serif" font-size="10.00">UniqueList&lt; Location &gt;</text>
</a>
</g>
</g>
<!-- Node3&#45;&gt;Node4 -->
<g id="edge3" class="edge"><title>Node3&#45;&gt;Node4</title>
<path fill="none" stroke="orange" stroke-dasharray="5,2" d="M53.7349,-59.4169C58.5246,-52.3296 64.5432,-44.3471 71,-38 78.1647,-30.9569 87.358,-24.4948 95.019,-19.6594"/>
<polygon fill="orange" stroke="orange" points="50.4964,-57.9827 48.0393,-68.2887 56.387,-61.7644 50.4964,-57.9827"/>
<text text-anchor="middle" x="100" y="-41.5" font-family="Helvetica,sans-Serif" font-size="10.00"> &lt; Location &gt;</text>
</g>
<!-- Node5&#45;&gt;Node4 -->
<g id="edge5" class="edge"><title>Node5&#45;&gt;Node4</title>
<path fill="none" stroke="midnightblue" d="M152.153,-60.68C141.205,-47.7768 126.34,-30.2575 117.502,-19.8411"/>
<polygon fill="midnightblue" stroke="midnightblue" points="149.54,-63.011 158.679,-68.3717 154.878,-58.4821 149.54,-63.011"/>
</g>
</g>
</svg>
