<?xml version="1.0" encoding="UTF-8" standalone="no"?>
<!DOCTYPE svg PUBLIC "-//W3C//DTD SVG 1.1//EN"
 "http://www.w3.org/Graphics/SVG/1.1/DTD/svg11.dtd">
<!-- Generated by graphviz version 2.36.0 (20140111.2315)
 -->
<!-- Title: List&lt; T &gt; Pages: 1 -->
<svg width="235pt" height="232pt"
 viewBox="0.00 0.00 235.00 232.00" xmlns="http://www.w3.org/2000/svg" xmlns:xlink="http://www.w3.org/1999/xlink">
<g id="graph0" class="graph" transform="scale(1 1) rotate(0) translate(4 228)">
<title>List&lt; T &gt;</title>
<polygon fill="white" stroke="none" points="-4,4 -4,-228 231,-228 231,4 -4,4"/>
<!-- Node1 -->
<g id="node1" class="node"><title>Node1</title>
<polygon fill="#bfbfbf" stroke="black" points="84,-204.5 84,-223.5 140,-223.5 140,-204.5 84,-204.5"/>
<text text-anchor="middle" x="112" y="-211.5" font-family="Helvetica,sans-Serif" font-size="10.00">List&lt; T &gt;</text>
</g>
<!-- Node2 -->
<g id="node2" class="node"><title>Node2</title>
<g id="a_node2"><a xlink:href="classOrderedList.html" target="_top" xlink:title="OrderedList\&lt; T \&gt;">
<polygon fill="white" stroke="black" points="13.5,-136.5 13.5,-155.5 104.5,-155.5 104.5,-136.5 13.5,-136.5"/>
<text text-anchor="middle" x="59" y="-143.5" font-family="Helvetica,sans-Serif" font-size="10.00">OrderedList&lt; T &gt;</text>
</a>
</g>
</g>
<!-- Node1&#45;&gt;Node2 -->
<g id="edge1" class="edge"><title>Node1&#45;&gt;Node2</title>
<path fill="none" stroke="midnightblue" d="M98.5975,-196.31C88.2654,-183.444 74.3847,-166.158 66.0997,-155.841"/>
<polygon fill="midnightblue" stroke="midnightblue" points="96.0808,-198.766 105.071,-204.372 101.539,-194.383 96.0808,-198.766"/>
</g>
<!-- Node6 -->
<g id="node6" class="node"><title>Node6</title>
<g id="a_node6"><a xlink:href="classList.html" target="_top" xlink:title="List\&lt; Location \&gt;">
<polygon fill="white" stroke="black" points="122.5,-136.5 122.5,-155.5 209.5,-155.5 209.5,-136.5 122.5,-136.5"/>
<text text-anchor="middle" x="166" y="-143.5" font-family="Helvetica,sans-Serif" font-size="10.00">List&lt; Location &gt;</text>
</a>
</g>
</g>
<!-- Node1&#45;&gt;Node6 -->
<g id="edge6" class="edge"><title>Node1&#45;&gt;Node6</title>
<path fill="none" stroke="orange" stroke-dasharray="5,2" d="M125.655,-196.31C136.182,-183.444 150.325,-166.158 158.766,-155.841"/>
<polygon fill="orange" stroke="orange" points="122.683,-194.416 119.06,-204.372 128.101,-198.848 122.683,-194.416"/>
<text text-anchor="middle" x="173" y="-177.5" font-family="Helvetica,sans-Serif" font-size="10.00"> &lt; Location &gt;</text>
</g>
<!-- Node3 -->
<g id="node3" class="node"><title>Node3</title>
<g id="a_node3"><a xlink:href="classUniqueList.html" target="_top" xlink:title="UniqueList\&lt; T \&gt;">
<polygon fill="white" stroke="black" points="-0.5,-68.5 -0.5,-87.5 86.5,-87.5 86.5,-68.5 -0.5,-68.5"/>
<text text-anchor="middle" x="43" y="-75.5" font-family="Helvetica,sans-Serif" font-size="10.00">UniqueList&lt; T &gt;</text>
</a>
</g>
</g>
<!-- Node2&#45;&gt;Node3 -->
<g id="edge2" class="edge"><title>Node2&#45;&gt;Node3</title>
<path fill="none" stroke="midnightblue" d="M54.497,-126.425C51.4358,-113.798 47.5242,-97.6623 45.1433,-87.8411"/>
<polygon fill="midnightblue" stroke="midnightblue" points="51.1507,-127.478 56.9083,-136.372 57.9537,-125.829 51.1507,-127.478"/>
</g>
<!-- Node5 -->
<g id="node5" class="node"><title>Node5</title>
<g id="a_node5"><a xlink:href="classOrderedList.html" target="_top" xlink:title="OrderedList\&lt; Location \&gt;">
<polygon fill="white" stroke="black" points="105,-68.5 105,-87.5 227,-87.5 227,-68.5 105,-68.5"/>
<text text-anchor="middle" x="166" y="-75.5" font-family="Helvetica,sans-Serif" font-size="10.00">OrderedList&lt; Location &gt;</text>
</a>
</g>
</g>
<!-- Node2&#45;&gt;Node5 -->
<g id="edge4" class="edge"><title>Node2&#45;&gt;Node5</title>
<path fill="none" stroke="orange" stroke-dasharray="5,2" d="M74.7207,-129.275C82.9613,-121.598 93.5049,-112.615 104,-106 115.819,-98.5504 130.047,-92.1925 141.891,-87.521"/>
<polygon fill="orange" stroke="orange" points="72.1144,-126.926 67.3348,-136.381 76.9677,-131.97 72.1144,-126.926"/>
<text text-anchor="middle" x="133" y="-109.5" font-family="Helvetica,sans-Serif" font-size="10.00"> &lt; Location &gt;</text>
</g>
<!-- Node4 -->
<g id="node4" class="node"><title>Node4</title>
<g id="a_node4"><a xlink:href="classUniqueList.html" target="_top" xlink:title="UniqueList\&lt; Location \&gt;">
<polygon fill="white" stroke="black" points="51,-0.5 51,-19.5 169,-19.5 169,-0.5 51,-0.5"/>
<text text-anchor="middle" x="110" y="-7.5" font-family="Helvetica,sans-Serif" font-size="10.00">UniqueList&lt; Location &gt;</text>
</a>
</g>
</g>
<!-- Node3&#45;&gt;Node4 -->
<g id="edge3" class="edge"><title>Node3&#45;&gt;Node4</title>
<path fill="none" stroke="orange" stroke-dasharray="5,2" d="M53.7349,-59.4169C58.5246,-52.3296 64.5432,-44.3471 71,-38 78.1647,-30.9569 87.358,-24.4948 95.019,-19.6594"/>
<polygon fill="orange" stroke="orange" points="50.4964,-57.9827 48.0393,-68.2887 56.387,-61.7644 50.4964,-57.9827"/>
<text text-anchor="middle" x="100" y="-41.5" font-family="Helvetica,sans-Serif" font-size="10.00"> &lt; Location &gt;</text>
</g>
<!-- Node5&#45;&gt;Node4 -->
<g id="edge5" class="edge"><title>Node5&#45;&gt;Node4</title>
<path fill="none" stroke="midnightblue" d="M152.153,-60.68C141.205,-47.7768 126.34,-30.2575 117.502,-19.8411"/>
<polygon fill="midnightblue" stroke="midnightblue" points="149.54,-63.011 158.679,-68.3717 154.878,-58.4821 149.54,-63.011"/>
</g>
<!-- Node6&#45;&gt;Node5 -->
<g id="edge7" class="edge"><title>Node6&#45;&gt;Node5</title>
<path fill="none" stroke="midnightblue" d="M166,-126.041C166,-113.472 166,-97.5631 166,-87.8411"/>
<polygon fill="midnightblue" stroke="midnightblue" points="162.5,-126.372 166,-136.372 169.5,-126.372 162.5,-126.372"/>
</g>
</g>
</svg>
