<?xml version="1.0" encoding="UTF-8" standalone="no"?>
<!DOCTYPE svg PUBLIC "-//W3C//DTD SVG 1.1//EN"
 "http://www.w3.org/Graphics/SVG/1.1/DTD/svg11.dtd">
<!-- Generated by graphviz version 2.36.0 (20140111.2315)
 -->
<!-- Title: List&lt; T &gt; Pages: 1 -->
<svg width="206pt" height="96pt"
 viewBox="0.00 0.00 206.00 96.00" xmlns="http://www.w3.org/2000/svg" xmlns:xlink="http://www.w3.org/1999/xlink">
<g id="graph0" class="graph" transform="scale(1 1) rotate(0) translate(4 92)">
<title>List&lt; T &gt;</title>
<polygon fill="white" stroke="none" points="-4,4 -4,-92 202,-92 202,4 -4,4"/>
<!-- Node1 -->
<g id="node1" class="node"><title>Node1</title>
<polygon fill="#bfbfbf" stroke="black" points="88,-0.5 88,-19.5 144,-19.5 144,-0.5 88,-0.5"/>
<text text-anchor="middle" x="116" y="-7.5" font-family="Helvetica,sans-Serif" font-size="10.00">List&lt; T &gt;</text>
</g>
<!-- Node2 -->
<g id="node2" class="node"><title>Node2</title>
<polygon fill="white" stroke="#bfbfbf" points="0,-68.5 0,-87.5 62,-87.5 62,-68.5 0,-68.5"/>
<text text-anchor="middle" x="31" y="-75.5" font-family="Helvetica,sans-Serif" font-size="10.00">const bool</text>
</g>
<!-- Node2&#45;&gt;Node1 -->
<g id="edge1" class="edge"><title>Node2&#45;&gt;Node1</title>
<path fill="none" stroke="#9a32cd" stroke-dasharray="5,2" d="M40.571,-59.1113C45.1154,-51.8607 51.0743,-43.839 58,-38 67.4259,-30.0532 79.582,-23.9216 90.3286,-19.5252"/>
<polygon fill="#9a32cd" stroke="#9a32cd" points="37.2669,-57.8338 35.2931,-68.2431 43.3275,-61.3366 37.2669,-57.8338"/>
<text text-anchor="middle" x="85" y="-41.5" font-family="Helvetica,sans-Serif" font-size="10.00"> controlData</text>
</g>
<!-- Node3 -->
<g id="node3" class="node"><title>Node3</title>
<polygon fill="white" stroke="#bfbfbf" points="80.5,-68.5 80.5,-87.5 151.5,-87.5 151.5,-68.5 80.5,-68.5"/>
<text text-anchor="middle" x="116" y="-75.5" font-family="Helvetica,sans-Serif" font-size="10.00">Node&lt; T &gt; *</text>
</g>
<!-- Node3&#45;&gt;Node1 -->
<g id="edge2" class="edge"><title>Node3&#45;&gt;Node1</title>
<path fill="none" stroke="#9a32cd" stroke-dasharray="5,2" d="M116,-58.0413C116,-45.4724 116,-29.5631 116,-19.8411"/>
<polygon fill="#9a32cd" stroke="#9a32cd" points="112.5,-58.3716 116,-68.3717 119.5,-58.3717 112.5,-58.3716"/>
<text text-anchor="middle" x="126" y="-41.5" font-family="Helvetica,sans-Serif" font-size="10.00"> first</text>
</g>
<!-- Node4 -->
<g id="node4" class="node"><title>Node4</title>
<polygon fill="white" stroke="#bfbfbf" points="169.5,-68.5 169.5,-87.5 198.5,-87.5 198.5,-68.5 169.5,-68.5"/>
<text text-anchor="middle" x="184" y="-75.5" font-family="Helvetica,sans-Serif" font-size="10.00">int</text>
</g>
<!-- Node4&#45;&gt;Node1 -->
<g id="edge3" class="edge"><title>Node4&#45;&gt;Node1</title>
<path fill="none" stroke="#9a32cd" stroke-dasharray="5,2" d="M167.564,-61.0474C154.236,-48.1111 135.943,-30.3567 125.109,-19.8411"/>
<polygon fill="#9a32cd" stroke="#9a32cd" points="165.497,-63.9184 175.11,-68.3717 170.372,-58.8953 165.497,-63.9184"/>
<text text-anchor="middle" x="168" y="-41.5" font-family="Helvetica,sans-Serif" font-size="10.00"> size</text>
</g>
</g>
</svg>
