<?xml version="1.0" encoding="UTF-8" standalone="no"?>
<!DOCTYPE svg PUBLIC "-//W3C//DTD SVG 1.1//EN"
 "http://www.w3.org/Graphics/SVG/1.1/DTD/svg11.dtd">
<!-- Generated by graphviz version 2.36.0 (20140111.2315)
 -->
<!-- Title: Graphical Class Hierarchy Pages: 1 -->
<svg width="408pt" height="28pt"
 viewBox="0.00 0.00 408.00 28.00" xmlns="http://www.w3.org/2000/svg" xmlns:xlink="http://www.w3.org/1999/xlink">
<g id="graph0" class="graph" transform="scale(1 1) rotate(0) translate(4 24)">
<title>Graphical Class Hierarchy</title>
<polygon fill="white" stroke="none" points="-4,4 -4,-24 404,-24 404,4 -4,4"/>
<!-- Node1 -->
<g id="node1" class="node"><title>Node1</title>
<g id="a_node1"><a xlink:href="classList.html" target="_top" xlink:title="List\&lt; Location \&gt;">
<polygon fill="white" stroke="black" points="0.5,-0.5 0.5,-19.5 87.5,-19.5 87.5,-0.5 0.5,-0.5"/>
<text text-anchor="middle" x="44" y="-7.5" font-family="Helvetica,sans-Serif" font-size="10.00">List&lt; Location &gt;</text>
</a>
</g>
</g>
<!-- Node2 -->
<g id="node2" class="node"><title>Node2</title>
<g id="a_node2"><a xlink:href="classOrderedList.html" target="_top" xlink:title="OrderedList\&lt; Location \&gt;">
<polygon fill="white" stroke="black" points="124,-0.5 124,-19.5 246,-19.5 246,-0.5 124,-0.5"/>
<text text-anchor="middle" x="185" y="-7.5" font-family="Helvetica,sans-Serif" font-size="10.00">OrderedList&lt; Location &gt;</text>
</a>
</g>
</g>
<!-- Node1&#45;&gt;Node2 -->
<g id="edge1" class="edge"><title>Node1&#45;&gt;Node2</title>
<path fill="none" stroke="midnightblue" d="M97.9771,-10C106.461,-10 115.293,-10 123.927,-10"/>
<polygon fill="midnightblue" stroke="midnightblue" points="97.8388,-6.5001 87.8388,-10 97.8387,-13.5001 97.8388,-6.5001"/>
</g>
<!-- Node3 -->
<g id="node3" class="node"><title>Node3</title>
<g id="a_node3"><a xlink:href="classUniqueList.html" target="_top" xlink:title="UniqueList\&lt; Location \&gt;">
<polygon fill="white" stroke="black" points="282,-0.5 282,-19.5 400,-19.5 400,-0.5 282,-0.5"/>
<text text-anchor="middle" x="341" y="-7.5" font-family="Helvetica,sans-Serif" font-size="10.00">UniqueList&lt; Location &gt;</text>
</a>
</g>
</g>
<!-- Node2&#45;&gt;Node3 -->
<g id="edge2" class="edge"><title>Node2&#45;&gt;Node3</title>
<path fill="none" stroke="midnightblue" d="M256.613,-10C265.03,-10 273.551,-10 281.767,-10"/>
<polygon fill="midnightblue" stroke="midnightblue" points="256.423,-6.5001 246.423,-10 256.423,-13.5001 256.423,-6.5001"/>
</g>
</g>
</svg>
