<?xml version="1.0" encoding="UTF-8" standalone="no"?>
<!DOCTYPE svg PUBLIC "-//W3C//DTD SVG 1.1//EN"
 "http://www.w3.org/Graphics/SVG/1.1/DTD/svg11.dtd">
<!-- Generated by graphviz version 2.38.0 (20140413.2041)
 -->
<!-- Title: main.cpp Pages: 1 -->
<svg width="402pt" height="140pt"
 viewBox="0.00 0.00 401.50 140.00" xmlns="http://www.w3.org/2000/svg" xmlns:xlink="http://www.w3.org/1999/xlink">
<g id="graph0" class="graph" transform="scale(1 1) rotate(0) translate(4 136)">
<title>main.cpp</title>
<polygon fill="white" stroke="none" points="-4,4 -4,-136 397.5,-136 397.5,4 -4,4"/>
<!-- Node1 -->
<g id="node1" class="node"><title>Node1</title>
<polygon fill="#bfbfbf" stroke="black" points="159,-112.5 159,-131.5 215,-131.5 215,-112.5 159,-112.5"/>
<text text-anchor="middle" x="187" y="-119.5" font-family="Helvetica,sans-Serif" font-size="10.00">main.cpp</text>
</g>
<!-- Node2 -->
<g id="node2" class="node"><title>Node2</title>
<g id="a_node2"><a xlink:href="main_8h_source.html" target="_top" xlink:title="main.h">
<polygon fill="white" stroke="black" points="0,-56.5 0,-75.5 46,-75.5 46,-56.5 0,-56.5"/>
<text text-anchor="middle" x="23" y="-63.5" font-family="Helvetica,sans-Serif" font-size="10.00">main.h</text>
</a>
</g>
</g>
<!-- Node1&#45;&gt;Node2 -->
<g id="edge1" class="edge"><title>Node1&#45;&gt;Node2</title>
<path fill="none" stroke="midnightblue" d="M161.014,-112.444C132.612,-103.092 87.0386,-88.0859 56.0988,-77.8984"/>
<polygon fill="midnightblue" stroke="midnightblue" points="56.8061,-74.4465 46.2131,-74.6433 54.6168,-81.0953 56.8061,-74.4465"/>
</g>
<!-- Node3 -->
<g id="node3" class="node"><title>Node3</title>
<g id="a_node3"><a xlink:href="ping_8h_source.html" target="_top" xlink:title="ping.h">
<polygon fill="white" stroke="black" points="64.5,-56.5 64.5,-75.5 107.5,-75.5 107.5,-56.5 64.5,-56.5"/>
<text text-anchor="middle" x="86" y="-63.5" font-family="Helvetica,sans-Serif" font-size="10.00">ping.h</text>
</a>
</g>
</g>
<!-- Node1&#45;&gt;Node3 -->
<g id="edge2" class="edge"><title>Node1&#45;&gt;Node3</title>
<path fill="none" stroke="midnightblue" d="M170.773,-112.324C154.649,-103.703 129.7,-90.3643 111.036,-80.3855"/>
<polygon fill="midnightblue" stroke="midnightblue" points="112.656,-77.283 102.187,-75.6545 109.356,-83.456 112.656,-77.283"/>
</g>
<!-- Node4 -->
<g id="node4" class="node"><title>Node4</title>
<g id="a_node4"><a xlink:href="square_8h_source.html" target="_top" xlink:title="square.h">
<polygon fill="white" stroke="black" points="126,-56.5 126,-75.5 180,-75.5 180,-56.5 126,-56.5"/>
<text text-anchor="middle" x="153" y="-63.5" font-family="Helvetica,sans-Serif" font-size="10.00">square.h</text>
</a>
</g>
</g>
<!-- Node1&#45;&gt;Node4 -->
<g id="edge3" class="edge"><title>Node1&#45;&gt;Node4</title>
<path fill="none" stroke="midnightblue" d="M181.386,-112.083C176.633,-104.534 169.682,-93.4948 163.848,-84.2298"/>
<polygon fill="midnightblue" stroke="midnightblue" points="166.8,-82.3486 158.51,-75.7511 160.876,-86.0783 166.8,-82.3486"/>
</g>
<!-- Node8 -->
<g id="node8" class="node"><title>Node8</title>
<g id="a_node8"><a xlink:href="base_8h.html" target="_top" xlink:title="base.h">
<polygon fill="white" stroke="black" points="198,-56.5 198,-75.5 244,-75.5 244,-56.5 198,-56.5"/>
<text text-anchor="middle" x="221" y="-63.5" font-family="Helvetica,sans-Serif" font-size="10.00">base.h</text>
</a>
</g>
</g>
<!-- Node1&#45;&gt;Node8 -->
<g id="edge7" class="edge"><title>Node1&#45;&gt;Node8</title>
<path fill="none" stroke="midnightblue" d="M192.614,-112.083C197.367,-104.534 204.318,-93.4948 210.152,-84.2298"/>
<polygon fill="midnightblue" stroke="midnightblue" points="213.124,-86.0783 215.49,-75.7511 207.2,-82.3486 213.124,-86.0783"/>
</g>
<!-- Node9 -->
<g id="node9" class="node"><title>Node9</title>
<polygon fill="white" stroke="#bfbfbf" points="262,-56.5 262,-75.5 316,-75.5 316,-56.5 262,-56.5"/>
<text text-anchor="middle" x="289" y="-63.5" font-family="Helvetica,sans-Serif" font-size="10.00">iostream</text>
</g>
<!-- Node1&#45;&gt;Node9 -->
<g id="edge8" class="edge"><title>Node1&#45;&gt;Node9</title>
<path fill="none" stroke="midnightblue" d="M203.388,-112.324C219.671,-103.703 244.867,-90.3643 263.716,-80.3855"/>
<polygon fill="midnightblue" stroke="midnightblue" points="265.452,-83.4267 272.653,-75.6545 262.177,-77.2402 265.452,-83.4267"/>
</g>
<!-- Node10 -->
<g id="node10" class="node"><title>Node10</title>
<polygon fill="white" stroke="#bfbfbf" points="334.5,-56.5 334.5,-75.5 393.5,-75.5 393.5,-56.5 334.5,-56.5"/>
<text text-anchor="middle" x="364" y="-63.5" font-family="Helvetica,sans-Serif" font-size="10.00">wiringPi.h</text>
</g>
<!-- Node1&#45;&gt;Node10 -->
<g id="edge9" class="edge"><title>Node1&#45;&gt;Node10</title>
<path fill="none" stroke="midnightblue" d="M215.046,-112.444C245.082,-103.28 292.913,-88.6876 326.243,-78.5192"/>
<polygon fill="midnightblue" stroke="midnightblue" points="327.542,-81.7822 336.085,-75.5164 325.499,-75.0869 327.542,-81.7822"/>
</g>
<!-- Node5 -->
<g id="node5" class="node"><title>Node5</title>
<polygon fill="white" stroke="#bfbfbf" points="42.5,-0.5 42.5,-19.5 111.5,-19.5 111.5,-0.5 42.5,-0.5"/>
<text text-anchor="middle" x="77" y="-7.5" font-family="Helvetica,sans-Serif" font-size="10.00">uniqueList.h</text>
</g>
<!-- Node4&#45;&gt;Node5 -->
<g id="edge4" class="edge"><title>Node4&#45;&gt;Node5</title>
<path fill="none" stroke="midnightblue" d="M140.789,-56.324C129.224,-48.1066 111.625,-35.6017 97.8393,-25.8069"/>
<polygon fill="midnightblue" stroke="midnightblue" points="99.612,-22.7729 89.4329,-19.8339 95.5575,-28.4791 99.612,-22.7729"/>
</g>
<!-- Node6 -->
<g id="node6" class="node"><title>Node6</title>
<polygon fill="white" stroke="#bfbfbf" points="130,-0.5 130,-19.5 176,-19.5 176,-0.5 130,-0.5"/>
<text text-anchor="middle" x="153" y="-7.5" font-family="Helvetica,sans-Serif" font-size="10.00">node.h</text>
</g>
<!-- Node4&#45;&gt;Node6 -->
<g id="edge5" class="edge"><title>Node4&#45;&gt;Node6</title>
<path fill="none" stroke="midnightblue" d="M153,-56.083C153,-49.0059 153,-38.8611 153,-29.9865"/>
<polygon fill="midnightblue" stroke="midnightblue" points="156.5,-29.751 153,-19.7511 149.5,-29.7511 156.5,-29.751"/>
</g>
<!-- Node7 -->
<g id="node7" class="node"><title>Node7</title>
<g id="a_node7"><a xlink:href="location_8h_source.html" target="_top" xlink:title="location.h">
<polygon fill="white" stroke="black" points="194.5,-0.5 194.5,-19.5 253.5,-19.5 253.5,-0.5 194.5,-0.5"/>
<text text-anchor="middle" x="224" y="-7.5" font-family="Helvetica,sans-Serif" font-size="10.00">location.h</text>
</a>
</g>
</g>
<!-- Node4&#45;&gt;Node7 -->
<g id="edge6" class="edge"><title>Node4&#45;&gt;Node7</title>
<path fill="none" stroke="midnightblue" d="M164.407,-56.324C175.109,-48.1849 191.341,-35.8395 204.163,-26.0874"/>
<polygon fill="midnightblue" stroke="midnightblue" points="206.544,-28.6734 212.385,-19.8339 202.307,-23.1018 206.544,-28.6734"/>
</g>
</g>
</svg>
