<?xml version="1.0" encoding="UTF-8" standalone="no"?>
<!DOCTYPE svg PUBLIC "-//W3C//DTD SVG 1.1//EN"
 "http://www.w3.org/Graphics/SVG/1.1/DTD/svg11.dtd">
<!-- Generated by graphviz version 2.36.0 (20140111.2315)
 -->
<!-- Title: main.cpp Pages: 1 -->
<svg width="401pt" height="308pt"
 viewBox="0.00 0.00 401.00 308.00" xmlns="http://www.w3.org/2000/svg" xmlns:xlink="http://www.w3.org/1999/xlink">
<g id="graph0" class="graph" transform="scale(1 1) rotate(0) translate(4 304)">
<title>main.cpp</title>
<polygon fill="white" stroke="none" points="-4,4 -4,-304 397,-304 397,4 -4,4"/>
<!-- Node1 -->
<g id="node1" class="node"><title>Node1</title>
<polygon fill="#bfbfbf" stroke="black" points="159,-280.5 159,-299.5 215,-299.5 215,-280.5 159,-280.5"/>
<text text-anchor="middle" x="187" y="-287.5" font-family="Helvetica,sans-Serif" font-size="10.00">main.cpp</text>
</g>
<!-- Node2 -->
<g id="node2" class="node"><title>Node2</title>
<g id="a_node2"><a xlink:href="main_8h_source.html" target="_top" xlink:title="main.h">
<polygon fill="white" stroke="black" points="0,-224.5 0,-243.5 46,-243.5 46,-224.5 0,-224.5"/>
<text text-anchor="middle" x="23" y="-231.5" font-family="Helvetica,sans-Serif" font-size="10.00">main.h</text>
</a>
</g>
</g>
<!-- Node1&#45;&gt;Node2 -->
<g id="edge1" class="edge"><title>Node1&#45;&gt;Node2</title>
<path fill="none" stroke="midnightblue" d="M161.014,-280.444C132.612,-271.092 87.0386,-256.086 56.0988,-245.898"/>
<polygon fill="midnightblue" stroke="midnightblue" points="56.8061,-242.446 46.2131,-242.643 54.6168,-249.095 56.8061,-242.446"/>
</g>
<!-- Node3 -->
<g id="node3" class="node"><title>Node3</title>
<g id="a_node3"><a xlink:href="ping_8h_source.html" target="_top" xlink:title="ping.h">
<polygon fill="white" stroke="black" points="64.5,-224.5 64.5,-243.5 107.5,-243.5 107.5,-224.5 64.5,-224.5"/>
<text text-anchor="middle" x="86" y="-231.5" font-family="Helvetica,sans-Serif" font-size="10.00">ping.h</text>
</a>
</g>
</g>
<!-- Node1&#45;&gt;Node3 -->
<g id="edge2" class="edge"><title>Node1&#45;&gt;Node3</title>
<path fill="none" stroke="midnightblue" d="M170.773,-280.324C154.649,-271.703 129.7,-258.364 111.036,-248.386"/>
<polygon fill="midnightblue" stroke="midnightblue" points="112.656,-245.283 102.187,-243.655 109.356,-251.456 112.656,-245.283"/>
</g>
<!-- Node4 -->
<g id="node4" class="node"><title>Node4</title>
<g id="a_node4"><a xlink:href="square_8h_source.html" target="_top" xlink:title="square.h">
<polygon fill="white" stroke="black" points="126,-224.5 126,-243.5 180,-243.5 180,-224.5 126,-224.5"/>
<text text-anchor="middle" x="153" y="-231.5" font-family="Helvetica,sans-Serif" font-size="10.00">square.h</text>
</a>
</g>
</g>
<!-- Node1&#45;&gt;Node4 -->
<g id="edge3" class="edge"><title>Node1&#45;&gt;Node4</title>
<path fill="none" stroke="midnightblue" d="M181.386,-280.083C176.633,-272.534 169.682,-261.495 163.848,-252.23"/>
<polygon fill="midnightblue" stroke="midnightblue" points="166.8,-250.349 158.51,-243.751 160.876,-254.078 166.8,-250.349"/>
</g>
<!-- Node10 -->
<g id="node10" class="node"><title>Node10</title>
<g id="a_node10"><a xlink:href="base_8h.html" target="_top" xlink:title="base.h">
<polygon fill="white" stroke="black" points="198,-224.5 198,-243.5 244,-243.5 244,-224.5 198,-224.5"/>
<text text-anchor="middle" x="221" y="-231.5" font-family="Helvetica,sans-Serif" font-size="10.00">base.h</text>
</a>
</g>
</g>
<!-- Node1&#45;&gt;Node10 -->
<g id="edge13" class="edge"><title>Node1&#45;&gt;Node10</title>
<path fill="none" stroke="midnightblue" d="M192.614,-280.083C197.367,-272.534 204.318,-261.495 210.152,-252.23"/>
<polygon fill="midnightblue" stroke="midnightblue" points="213.124,-254.078 215.49,-243.751 207.2,-250.349 213.124,-254.078"/>
</g>
<!-- Node11 -->
<g id="node11" class="node"><title>Node11</title>
<polygon fill="white" stroke="#bfbfbf" points="262,-224.5 262,-243.5 316,-243.5 316,-224.5 262,-224.5"/>
<text text-anchor="middle" x="289" y="-231.5" font-family="Helvetica,sans-Serif" font-size="10.00">iostream</text>
</g>
<!-- Node1&#45;&gt;Node11 -->
<g id="edge14" class="edge"><title>Node1&#45;&gt;Node11</title>
<path fill="none" stroke="midnightblue" d="M203.388,-280.324C219.671,-271.703 244.867,-258.364 263.716,-248.386"/>
<polygon fill="midnightblue" stroke="midnightblue" points="265.452,-251.427 272.653,-243.655 262.177,-245.24 265.452,-251.427"/>
</g>
<!-- Node12 -->
<g id="node12" class="node"><title>Node12</title>
<polygon fill="white" stroke="#bfbfbf" points="334.5,-224.5 334.5,-243.5 393.5,-243.5 393.5,-224.5 334.5,-224.5"/>
<text text-anchor="middle" x="364" y="-231.5" font-family="Helvetica,sans-Serif" font-size="10.00">wiringPi.h</text>
</g>
<!-- Node1&#45;&gt;Node12 -->
<g id="edge15" class="edge"><title>Node1&#45;&gt;Node12</title>
<path fill="none" stroke="midnightblue" d="M215.046,-280.444C245.082,-271.28 292.913,-256.688 326.243,-246.519"/>
<polygon fill="midnightblue" stroke="midnightblue" points="327.542,-249.782 336.085,-243.516 325.499,-243.087 327.542,-249.782"/>
</g>
<!-- Node5 -->
<g id="node5" class="node"><title>Node5</title>
<g id="a_node5"><a xlink:href="uniqueList_8h_source.html" target="_top" xlink:title="uniqueList.h">
<polygon fill="white" stroke="black" points="35.5,-168.5 35.5,-187.5 104.5,-187.5 104.5,-168.5 35.5,-168.5"/>
<text text-anchor="middle" x="70" y="-175.5" font-family="Helvetica,sans-Serif" font-size="10.00">uniqueList.h</text>
</a>
</g>
</g>
<!-- Node4&#45;&gt;Node5 -->
<g id="edge4" class="edge"><title>Node4&#45;&gt;Node5</title>
<path fill="none" stroke="midnightblue" d="M139.665,-224.324C126.838,-215.979 107.215,-203.212 92.0602,-193.352"/>
<polygon fill="midnightblue" stroke="midnightblue" points="93.5932,-190.174 83.3023,-187.655 89.7757,-196.042 93.5932,-190.174"/>
</g>
<!-- Node8 -->
<g id="node8" class="node"><title>Node8</title>
<g id="a_node8"><a xlink:href="node_8h_source.html" target="_top" xlink:title="node.h">
<polygon fill="white" stroke="black" points="73,-0.5 73,-19.5 119,-19.5 119,-0.5 73,-0.5"/>
<text text-anchor="middle" x="96" y="-7.5" font-family="Helvetica,sans-Serif" font-size="10.00">node.h</text>
</a>
</g>
</g>
<!-- Node4&#45;&gt;Node8 -->
<g id="edge11" class="edge"><title>Node4&#45;&gt;Node8</title>
<path fill="none" stroke="midnightblue" d="M151.739,-224.378C147.827,-198.477 134.946,-119.245 115,-56 112.131,-46.9014 108.114,-37.1092 104.512,-28.9902"/>
<polygon fill="midnightblue" stroke="midnightblue" points="107.639,-27.4111 100.29,-19.7791 101.275,-30.328 107.639,-27.4111"/>
</g>
<!-- Node9 -->
<g id="node9" class="node"><title>Node9</title>
<g id="a_node9"><a xlink:href="location_8h_source.html" target="_top" xlink:title="location.h">
<polygon fill="white" stroke="black" points="181.5,-168.5 181.5,-187.5 240.5,-187.5 240.5,-168.5 181.5,-168.5"/>
<text text-anchor="middle" x="211" y="-175.5" font-family="Helvetica,sans-Serif" font-size="10.00">location.h</text>
</a>
</g>
</g>
<!-- Node4&#45;&gt;Node9 -->
<g id="edge12" class="edge"><title>Node4&#45;&gt;Node9</title>
<path fill="none" stroke="midnightblue" d="M162.319,-224.324C170.893,-216.341 183.812,-204.313 194.188,-194.653"/>
<polygon fill="midnightblue" stroke="midnightblue" points="196.578,-197.21 201.512,-187.834 191.808,-192.086 196.578,-197.21"/>
</g>
<!-- Node6 -->
<g id="node6" class="node"><title>Node6</title>
<g id="a_node6"><a xlink:href="orderedList_8h_source.html" target="_top" xlink:title="orderedList.h">
<polygon fill="white" stroke="black" points="13.5,-112.5 13.5,-131.5 86.5,-131.5 86.5,-112.5 13.5,-112.5"/>
<text text-anchor="middle" x="50" y="-119.5" font-family="Helvetica,sans-Serif" font-size="10.00">orderedList.h</text>
</a>
</g>
</g>
<!-- Node5&#45;&gt;Node6 -->
<g id="edge5" class="edge"><title>Node5&#45;&gt;Node6</title>
<path fill="none" stroke="midnightblue" d="M66.6974,-168.083C64.018,-160.849 60.1514,-150.409 56.8136,-141.397"/>
<polygon fill="midnightblue" stroke="midnightblue" points="59.9965,-139.913 53.2411,-131.751 53.4322,-142.344 59.9965,-139.913"/>
</g>
<!-- Node7 -->
<g id="node7" class="node"><title>Node7</title>
<g id="a_node7"><a xlink:href="list_8h_source.html" target="_top" xlink:title="list.h">
<polygon fill="white" stroke="black" points="11,-56.5 11,-75.5 49,-75.5 49,-56.5 11,-56.5"/>
<text text-anchor="middle" x="30" y="-63.5" font-family="Helvetica,sans-Serif" font-size="10.00">list.h</text>
</a>
</g>
</g>
<!-- Node5&#45;&gt;Node7 -->
<g id="edge9" class="edge"><title>Node5&#45;&gt;Node7</title>
<path fill="none" stroke="midnightblue" d="M48.1919,-168.447C33.0551,-161.221 14.0453,-149.264 5,-132 -3.20658,-116.337 6.12278,-97.3562 15.6303,-83.9603"/>
<polygon fill="midnightblue" stroke="midnightblue" points="18.6788,-85.7395 22.0276,-75.6878 13.1414,-81.4573 18.6788,-85.7395"/>
</g>
<!-- Node5&#45;&gt;Node8 -->
<g id="edge10" class="edge"><title>Node5&#45;&gt;Node8</title>
<path fill="none" stroke="midnightblue" d="M76.6039,-168.268C82.7219,-159.596 91.4015,-145.655 95,-132 104.247,-96.9106 101.471,-54.0852 98.6864,-29.9388"/>
<polygon fill="midnightblue" stroke="midnightblue" points="102.117,-29.174 97.3714,-19.7014 95.174,-30.0658 102.117,-29.174"/>
</g>
<!-- Node6&#45;&gt;Node7 -->
<g id="edge6" class="edge"><title>Node6&#45;&gt;Node7</title>
<path fill="none" stroke="midnightblue" d="M46.6974,-112.083C44.018,-104.849 40.1514,-94.4087 36.8136,-85.3968"/>
<polygon fill="midnightblue" stroke="midnightblue" points="39.9965,-83.9129 33.2411,-75.7511 33.4322,-86.3442 39.9965,-83.9129"/>
</g>
<!-- Node6&#45;&gt;Node8 -->
<g id="edge8" class="edge"><title>Node6&#45;&gt;Node8</title>
<path fill="none" stroke="midnightblue" d="M53.6095,-112.368C61.1001,-94.4563 78.4684,-52.9233 88.4944,-28.9482"/>
<polygon fill="midnightblue" stroke="midnightblue" points="91.7781,-30.1676 92.4072,-19.5914 85.3201,-27.4669 91.7781,-30.1676"/>
</g>
<!-- Node7&#45;&gt;Node8 -->
<g id="edge7" class="edge"><title>Node7&#45;&gt;Node8</title>
<path fill="none" stroke="midnightblue" d="M40.604,-56.324C50.4562,-48.2631 65.3509,-36.0765 77.2151,-26.3695"/>
<polygon fill="midnightblue" stroke="midnightblue" points="79.6798,-28.8752 85.203,-19.8339 75.2471,-23.4575 79.6798,-28.8752"/>
</g>
</g>
</svg>
